<svg version="1.0" xmlns="http://www.w3.org/2000/svg" width="400pt" height="400pt" viewBox="0 0 400 400"><g transform="translate(0.000000,400.000000) scale(0.100000,-0.100000)" fill="#69c" stroke="none"><path d="M1790 3860c0-5 5-10 10-10 6 0 10-8 8-17-2-10 4-18 12-19 8 0 20-2 27-2 6-1 21-18 33-37 13-20 30-35 41-35 10 0 19-4 19-8 0-12 46-32 54-25 3 4 6 15 6 25 0 14-6 18-27 16-17-2-28 2-28 10 0 7-6 17-14 21-7 5-11 15-9 22 6 17-35 39-76 40-17 0-25 3-18 6 21 8 13 23-13 23-14 0-25-4-25-10zm2053-90c0-44 13-52 27-17 5 12 9 17 9 11 1-19 54-24 74-7 9 9 17 19 17 23 0 13-51 30-89 30s-38 0-38-40zM368 3759c-37-22-15-55 41-61 31-3 34-1 37 30 3 21-1 32-9 32-6 0-21 2-32 5s-28 0-37-6zm1227-113c-25-25-94-48-81-27 4 6 2 11-3 11-6 0-11-6-11-13 0-8-9-22-19-31-17-16-23-16-47-4-25 12-30 11-61-18-18-17-33-40-33-52 0-20-5-22-49-22-28 0-53-4-56-10-3-5-25-19-48-29-41-19-42-19-49 0-11 30-30 23-103-39l-69-57 2-62c1-41 7-72 19-89 9-15 19-34 21-43 1-9 4-23 7-31 2-8 4-17 4-19 1-2 12 4 26 13 13 9 33 16 43 16 11 0 25 7 32 15s28 15 46 15c19 0 34 4 34 9 0 21 35 22 52 1 10-12 18-17 18-10 0 6 8 9 18 6 13-5 22 1 30 19 17 36 16 37-19 30-27-6-30-5-28 17 4 42-1 69-11 63-5-3-10 1-10 9 0 12 5 13 30 5 17-6 30-15 30-20 0-21 20-6 41 31 13 22 27 41 33 41 6 1 46 3 89 4 61 2 77 0 77-12 0-9-5-11-12-7-10 6-10 4 0-8 11-14 30-21 87-30 14-2 21 3 23 20 4 26-14 30-21 5-3-11-5-7-6 10 0 15 4 27 10 27 5 0 7 6 3 13-6 9-4 9 7 1 8-6 40-11 72-11 33-1 64-6 70-12s18-11 26-11 24-9 36-20c18-17 37-20 155-22 86-1 140-6 150-14 8-6 31-15 50-19 30-7 32-9 18-18-15-10-15-13 3-38 15-21 31-30 67-35 90-13 94-43 5-39-32 2-63-1-70-7-7-5-16-7-21-4-4 2-20-8-35-23l-26-28 23-22c12-11 32-21 43-21s37-7 58-16c20-8 53-14 73-12 29 2 37 8 42 28 8 33 29 36 86 11 26-12 52-21 59-21s15-7 19-15c3-8 14-15 25-15s23-5 27-11c3-6 15-9 25-6s17 2 16-2 11-31 26-59c18-33 35-52 46-52 10 0 35-7 56-16 36-15 102-11 78 4-16 11-11 42 7 42 16 0 60-50 60-69 0-5 4-11 9-13 5-1 11-23 15-48l6-45-17 33c-13 25-23 32-47 33-17 0-25 3-18 6 17 7 15 43-2 43-8 0-18-10-21-21-8-25 8-39 44-39 15 0 21-5 18-14-3-7 6-25 19-39s24-31 24-36c0-6 6-14 13-18 8-4 19-17 26-28 9-15 11-16 7-2-3 9-2 17 3 17 18 0 22 69 6 106-8 20-15 51-15 68 0 18-6 41-14 52-8 10-12 29-9 42 5 22-38 125-58 137-5 4-9 14-9 24 0 22-124 136-215 196-16 12-30 30-30 40 0 14-6 19-18 17-17-3-55 24-118 84-14 13-34 24-44 24s-15 3-12 6c10 10-73 61-111 69-32 7-33 7-17 31 14 21 14 24 0 24-8 0-15 6-15 14 0 13-20 26-41 26-4 0-6-13-3-30 6-30 6-30-36-28-24 1-44 7-47 15-3 7-14 13-25 13-34 0-87 30-81 46 3 8-1 14-11 14-9 0-16-7-16-15 0-20-47-20-66 0-12 11-36 14-117 10-56-2-114-8-129-14-31-12-54-6-62 15-8 22-54 16-81-10zm168-98c31-11 57-25 57-29 0-5 7-9 15-9s15-4 15-10c0-11-35-18-151-28-134-12-172 11-107 66 55 48 65 48 171 10zm1327 63c0-27-28-71-45-71-16 0-35-44-25-60 8-13 66 43 103 101 22 34 27 36 20 10-6-23 16-39 28-20 18 28 2 48-44 56-33 5-37 3-37-16zM296 3555c-16-17-16-18 4-32 11-8 24-12 28-9 5 3 25 0 45-6 43-13 65-1 65 36 0 21-5 24-34 24-21 0-34-5-34-13 0-7-9-15-21-18-14-4-22 0-28 15-7 19-8 19-25 3zm269-45c-4-6 1-12 9-15 9-3 23-7 32-10 11-4 14-12 11-26-5-18-2-21 23-17 16 3 31 0 33-6 5-14 13-7 21 22 6 18 4 22-15 22-12 0-27 7-34 16-14 19-71 29-80 14zm-250-21c-3-4-2-15 1-26 5-17 5-17-6 0-17 27-27 21-49-29-19-43-19-84 0-53 4 7 11 10 15 6s-1-13-11-21c-12-9-15-15-7-20 18-11 15-86-3-86-8 0-15-9-15-20s5-20 10-20c6 0 10-8 10-17 0-31 32-103 46-103 8 0 14 7 14 16 0 8 7 22 15 31 14 14 18 14 35-2 19-18 20-17 20 8 0 20-5 27-20 27-12 0-20 7-20 16s-9 18-20 21c-19 5-25 24-21 66 1 9-2 17-6 17-14 0-2 74 14 87 9 7 12 19 8 33-6 19-5 20 14 8 21-13 29-48 11-48-5 0-10-9-10-20 0-30 38-26 46 5 9 36-4 78-21 71-8-3-17-1-20 5-4 5 0 12 9 15 28 11 26 32-5 36-17 3-32 1-34-3zm168-1c-26-12-29-29-12-61 20-37 59-52 59-22 0 9 6 12 15 9 8-3 22 1 30 10 15 14 15 16 1 16-9 0-16 4-16 8 0 13-36 52-46 51-5 0-19-5-31-11zm-43-95c-29-10-39-33-28-66 5-18 9-47 9-64 0-38 22-45 39-14 16 31 12 48-13 55-20 5-23 11-19 36l4 31 32-19c23-14 36-16 48-9 11 8 21 5 39-12 31-28 43-22 47 24 3 36 2 37-23 31-68-17-82-17-98-2-8 9-17 16-19 15-2 0-10-3-18-6zm1130-352c0-6 1-13 3-15 1-2-6-13-16-23-9-11-14-23-10-26 3-4 1-7-5-7-22 0-62-54-62-85 0-16-6-42-14-57-18-34-26-104-16-140 7-22 5-28-6-28-12 0-14-10-11-45 3-25 2-45-3-45-4 0-5-11-2-25 2-15 0-25-7-25-6 0-11-4-11-10 0-11-12-26-72-91-24-25-51-49-60-52-19-7-29-61-27-142 2-61-9-115-27-132-18-19-64-6-64 17 0 38-24 120-35 120-6 0-27 25-46 55-18 30-37 55-41 55-5 0-8 6-8 13 0 8-9 22-20 32-18 17-19 16-26-9-3-14-7-37-8-51-1-30-10-31-36-5-12 12-33 20-55 20-29 0-43-8-75-42-33-34-40-48-40-80 0-22 4-47 9-57 6-10 11-60 12-111 1-52 7-119 13-150 11-52 75-182 96-195 6-3 10-14 10-24 0-21 54-75 1e2-1e2 33-17 34-20 31-72-1-30-7-58-12-64-12-12-12-28 1-20 6 4 8-20 5-67-3-40-6-93-7-118s-7-48-13-52c-5-4-10-11-10-16 0-6-12-22-27-37s-25-31-22-36-2-9-10-9-21-10-27-23c-15-28-36-45-71-58-16-6-26-14-23-19 7-11-45-31-69-25-11 2-15 2-8-1 17-8 15-24-3-24-8 0-23-4-33-9-25-13-115-41-130-41-7 0-11 4-8 9 4 5-20 7-56 4-45-5-59-3-54 5 4 7 1 12-9 12-9 0-13-4-10-10 3-5-3-10-15-10s-18 5-15 10c3 6-1 10-9 10-9 0-16-4-16-10 0-5-5-10-11-10s-24-9-39-20c-21-15-42-19-79-18-28 1-51 5-51 8 0 12-99 27-153 22l-57-4V444 0h1325c729 0 1325 3 1325 8 0 8-26 40-91 111-38 42-79 71-101 71-12 0-194 90-280 138-37 21-94 62-126 92-56 51-58 55-42 72 9 10 23 38 30 61 23 77 30 87 60 80 18-3 38 2 55 13 22 15 28 15 35 3 8-12 11-12 22 0 10 10 10 12 1 7-8-4-13-1-13 7s7 18 16 21c22 8 26 8 19-4-3-5-1-10 5-10s13 7 16 15c4 8 11 15 18 15 6 0 27 23 46 50 19 28 67 90 105 139 39 49 86 109 105 135 19 25 43 45 53 46 11 0 15 5 11 11-3 6 3 29 14 52 52 106 166 343 168 352 2 6 17 55 34 110 16 55 35 141 40 190 6 50 14 101 19 115s11 61 14 105c3 64 9 88 29 120 19 31 25 55 26 103 1 35 6 71 12 82 5 10 10 36 10 57s7 60 15 87c19 62 19 64-2 62-22-1-43-18-36-28 2-4-3-5-11-2-9 3-16 11-16 18-1 9-22-18-26-34-1-3-5-20-9-37-4-18-13-37-21-44-7-6-10-17-7-25s0-14-5-14c-6 0-14 16-18 35-3 20-11 35-18 34-25-3-36 2-36 17 0 9-5 12-12 8-7-5-9-1-6 13 3 13-1 24-13 31-22 14-49 16-49 3 0-5-20 1-45 12-34 16-42 24-34 33 8 10 0 12-40 9-30-3-51 0-51 5 0 6 5 10 10 10 16 0 12 16-10 41-17 21-19 21-13 4 3-11 11-23 17-27s1-8-12-8-21 4-18 9-1 11-9 15c-8 3-19-3-25-12-8-14-9-13-7 8 1 16-3 24-10 23-7-2-13 2-13 7 0 6-7 10-15 10-18 0-20 16-2 24 6 3-7 4-30 1-24-3-43-1-43 4 0 11-62 36-112 45-24 4-38 3-38-3 0-7-9-7-25 1-13 6-22 14-20 18s-14 17-35 31c-22 13-40 27-40 31 0 11-59 73-70 74-6 1-22 2-37 3-22 1-25 3-13 11 11 7 12 14 5 26-6 9-14 16-18 15s-19 7-34 18c-14 12-29 18-34 15s-9-1-9 5c0 5 8 12 18 14 9 3 3 5-14 6-18 0-34 7-38 16-3 9-18 14-41 13-22-1-40 5-48 15-8 11-34 18-80 21-37 3-72 8-77 11-6 3-10 1-10-4zm301-811c24-11 56-20 71-20s31-6 35-12c9-15 41-36 66-44 9-4 17-10 17-15s9-9 21-9c26 0 59-18 59-32 0-6-9-19-21-29-16-14-26-16-50-7-16 5-29 14-29 20s-7 8-15 5c-8-4-17-2-21 4-3 6-11 8-17 6-7-2-23 1-37 8-14 6-42 11-62 11-21-1-38 3-38 7 0 5-4 6-8 3-5-3-24 5-43 16-19 12-41 22-49 23s-25 2-37 3c-19 2-23 8-23 35 0 23-3 28-10 17-5-8-12-12-15-8-3 3 1 12 9 21 24 23 143 22 197-3zm157-178c9-26 35-52 50-52 10 0 12-6 7-17-4-10-8-25-8-33s-4-18-9-21-12-25-16-50c-5-31-12-44-24-44-9 0-20-4-24-8-14-14-53-7-57 11-4 13-5 11-6-5 0-13-6-23-12-23s-8 7-5 16c4 10 1 14-6 12-14-5-38 35-38 63 0 11-4 19-10 19-5 0-7-7-4-15 4-10 0-15-11-15s-15 5-12 15c7 17-9 29-43 31-14 1-17 0-7-3 17-4 24-23 9-23-4 0-28 11-53 25-26 13-49 21-53 18-4-4-9 3-12 14-4 12-15 23-27 25-11 2-22 9-25 16-2 7 2 10 12 6 11-4 16-1 16 10 0 20 27 20 60 1 32-18 70-19 70-1 0 8 6 16 14 19 10 4 12 0 9-14-4-14-1-18 10-13 8 3 18 1 22-5 10-17 28-13 21 5-4 11-1 14 12 13 27-5 73 11 67 21-3 6-1 10 4 10 6 0 11-6 11-13 0-8 7-14 16-14 11 0 14 7 10 23-5 19-3 21 15 17 11-3 23-13 27-21zm756-4c2-1 6-20 9-41l6-38-82 2c-50 2-91-2-105-10-12-6-27-9-32-6s-11 1-15-5c-9-15 45-58 82-66 36-7 106-61 97-75-7-12-86-11-117 0-20 8-27 6-31-5-4-9-13-13-24-10-15 5-18 0-20-31-2-20-5-40-7-44-6-9-45 1-45 12 0 5-11 9-24 9s-29 7-36 15c-7 9-19 14-26 11-8-3-11 0-8 8s-4 31-15 51l-20 38 22 26c20 24 46 77 61 124 8 27 46 36 132 32 42-2 87 1 98 6 19 8 93 6 1e2-3zm-686-661c22-1 38-5 36-8s8-11 21-17c14-7 25-15 25-19 0-5 32-9 70-9 60-1 74-5 94-25 13-13 40-39 60-58 49-46 63-107 27-119-8-3-11 0-7 6 3 6-7 19-24 28-16 10-30 22-30 26s-7 5-15 2c-9-4-15 0-15 10 0 19 1 19-110 21-84 2-106 5-125 17-16 10-155 8-2e2-3-22-5-51-12-65-15-14-2-32-7-41-10-20-6-34 25-19 40 5 5 10 16 10 24 0 18 20 36 45 40 11 2 25 7 30 12 6 4 28 8 49 8 22 1 44 6 49 11s15 7 22 5c7-3 23 8 36 24s27 25 30 20c4-6 24-11 47-11zm-165-210c20 2 37-1 37-5 0-5 14-7 31-4 21 3 34-1 43-13 11-16 30-19 115-20 77 0 106-4 120-17 12-10 29-14 47-10 29 5 29 5 10-17-20-22-46-28-46-11 0 6-10 10-22 10-21 0-21 0 3-21l24-22-35 7c-33 6-33 6-15-10 19-15 19-15-12-10-22 4-33 1-33-6s-7-3-15 8c-14 18-16 18-28 2-15-18-49-18-55 0-2 7-8 12-13 12-6 0-7-4-4-10 9-15-13-12-40 6-13 8-30 14-38 12s-26 12-42 30c-15 18-30 30-34 27-3-4 5-15 19-25 16-13 20-20 10-20-15 0-110 96-110 112 0 5 10 6 23 1 12-4 39-7 60-6zm687 1656c0-2 15-20 33-39 24-26 44-37 74-41 23-3 44-11 47-19s0-11-10-7c-8 3-14-1-14-11 0-9 5-16 11-16 5 0 8-4 5-9s1-12 10-15c28-11 36-6 31 17-3 12-2 31 3 42 9 26-8 75-26 75-8 0-14 5-14 11 0 8-13 10-37 6-21-4-55-2-75 2-21 5-38 7-38 4zm782-158c-7-14-19-28-27-31-8-4-15-11-15-17 0-8 3-8 11 0 6 6 18 9 27 6 9-4 13-2 9 4-10 16 18 35 45 31 15-2 24-11 26-25 2-13-1-23-7-23s-10 6-8 13c2 10-31 12-42 2-8-8 12-25 30-25 10 0 19-6 19-14 0-7 7-19 15-26 17-15 18-10 6 23-8 21-6 28 15 43 34 26 31 46-5 41-17-3-31-1-33 3-2 5-15 11-29 15-21 5-27 2-37-20zm435-88c-26-40-22-50 17-44 19 3 39 0 46-6 10-9 14-9 17 0 2 7 11 9 19 6 9-3 14 2 14 15 0 11-7 22-15 26-18 7-75-12-75-26 0-5-5-6-11-2-8 5-8 9 1 14 7 4 10 16 8 26-3 15-6 14-21-9zm-174-6e2c8-18 20-23 50-24 27-2 44-8 53-22 9-12 21-18 30-14 13 5 13 7-1 23-8 9-15 20-15 25 0 18-38 34-82 35-45 0-46-1-35-23zm-195-434c-10-2-15-10-11-19 6-17-18-19-35-2-7 7-12 8-12 2 0-5 10-15 21-23 17-10 23-10 29-1 4 7 12 10 18 6 6-3 15 2 21 11 9 16 10 15 11-8 0-25 3-27 42-25 26 0 43 6 46 15 3 10-1 12-17 8s-26 1-37 19c-16 23-36 28-76 17zm424-342-33-6 20-22c25-27 27-34 4-26-10 4-14 2-10-4s-1-14-10-17c-19-8-35 12-28 33 4 10-1 12-17 7-13-3-26-6-30-6-19 0 17-50 36-50 12 0 36-13 55-29 32-26 33-28 12-34-16-4-21-1-21 13 0 18-36 38-47 26-4-3-12-1-20 5-9 8-13 8-13 0 0-16 32-51 48-51 7 0 26-10 42-22 24-17 32-19 45-8 12 10 15 10 15-4 0-20 16-21 24-1 3 8 12 15 20 15 11 0 14 20 15 95l1 95-37-1c-21-1-53-4-71-8zM3730 785c8-20 6-23-6-18-12 4-15 1-12-13 2-14 12-19 41-20 25-1 37 3 37 12 0 8-7 14-15 14s-15 5-15 10c0 6 8 10 17 8 10-2 19 4 21 15 3 14-4 17-37 17-39 0-40-1-31-25zm-53-299c18-54 43-62 44-13 0 17 3 26 6 20 2-7 11-13 19-13s14-6 14-14c0-22 19-30 36-15 8 6 17 9 21 5 3-3 1-6-5-6s-9-6-6-13c2-8 19-14 37-14s52-6 76-13c36-11 44-11 52 1 12 19 11 62-1 54-5-3-7-12-4-19 8-22-14-29-25-8-9 16-48 33-86 36-5 1-16 7-23 14-7 6-24 12-36 12s-26 3-29 7c-4 3-17 7-30 8-12 1-34 5-48 9l-27 8 15-46zm39-242c-3-8-3-26 0-38 4-16 0-25-10-29-23-9-8-40 16-34 15 4 18 1 13-14-4-10-2-19 4-19 16 0 43-59 36-79-6-20 17-31 63-31 19 0 23 5 20 27-2 14-9 29-17 31-10 3-13-2-9-22 6-28 1-31-22-16-12 8-13 10-1 10 10 0 8 7-7 23-12 13-22 33-22 45 0 15-5 20-15 16-8-4-15-1-15 5s4 11 9 11c20 0 18 29-4 52-16 17-20 29-14 40 6 10 4 20-5 27-11 9-15 8-20-5z"/></g></svg>